<svg width="24" height="24" viewBox="0 0 24 24" fill="none" xmlns="http://www.w3.org/2000/svg">
<path opacity="0.5" d="M18.8495 17.4349L6.7886 5.37402L6.09741 5.8774C3.96359 7.43143 2.79638 9.55975 2.27075 10.7402C1.91235 11.5451 1.91235 12.4556 2.27075 13.2604C3.14008 15.2127 5.89221 20.0003 12.001 20.0003C14.4689 20.0003 16.414 19.2086 17.9041 18.1234L18.8495 17.4349Z" fill="#A27852"/>
<path fill-rule="evenodd" clip-rule="evenodd" d="M9.87868 9.87891C9.33579 10.4218 9 11.1718 9 12.0002C9 13.6571 10.3431 15.0002 12 15.0002C12.8284 15.0002 13.5784 14.6644 14.1213 14.1215L9.87868 9.87891Z" fill="#A27852"/>
<path opacity="0.2" d="M12.0003 4C18.1092 4 20.8611 8.78782 21.7302 10.7401C22.0885 11.5448 22.0885 12.4552 21.7302 13.2599C21.5746 13.6096 21.3658 14.0352 21.0963 14.5009C20.8197 14.9789 20.208 15.1421 19.7299 14.8655C19.2519 14.5889 19.0887 13.9772 19.3653 13.4991C19.5948 13.1025 19.7722 12.7407 19.9031 12.4465C20.0309 12.1595 20.0309 11.8405 19.9031 11.5535C19.1103 9.77274 16.8556 6 12.0003 6L11 6.00001C10.4477 6.00001 10 5.5523 10 5.00002C9.99999 4.44773 10.4477 4.00001 11 4.00001L12.0003 4Z" fill="#B5B5B5"/>
<path fill-rule="evenodd" clip-rule="evenodd" d="M2.29289 2.29289C2.68342 1.90237 3.31658 1.90237 3.70711 2.29289L21.7071 20.2929C22.0976 20.6834 22.0976 21.3166 21.7071 21.7071C21.3166 22.0976 20.6834 22.0976 20.2929 21.7071L2.29289 3.70711C1.90237 3.31658 1.90237 2.68342 2.29289 2.29289Z" fill="#B5B5B5"/>
</svg>
