<svg width="21" height="22" viewBox="0 0 21 22" fill="none" xmlns="http://www.w3.org/2000/svg">
<path d="M20 21L18.1 19M10.025 20C11.2102 20 12.3838 19.7543 13.4787 19.2769C14.5737 18.7994 15.5686 18.0997 16.4066 17.2175C17.2447 16.3354 17.9095 15.2881 18.363 14.1355C18.8166 12.9829 19.05 11.7476 19.05 10.5C19.05 9.25244 18.8166 8.0171 18.363 6.86451C17.9095 5.71191 17.2447 4.66464 16.4066 3.78249C15.5686 2.90033 14.5737 2.20056 13.4787 1.72314C12.3838 1.24572 11.2102 1 10.025 1C7.63142 1 5.33588 2.00089 3.64336 3.78249C1.95085 5.56408 1 7.98044 1 10.5C1 13.0196 1.95085 15.4359 3.64336 17.2175C5.33588 18.9991 7.63142 20 10.025 20Z" stroke="#A27852" stroke-width="1.5" stroke-linecap="round" stroke-linejoin="round"/>
</svg>
